rec1_006.mot
nRows=12
nColumns=19

name rec1_006.mot
datacolumns 19
datarows 12
range 15.0061188701 15.0281192775
endheader
time	ground_force_vx	ground_force_vy	ground_force_vz	ground_force_px	ground_force_py	ground_force_pz	1_ground_force_vx	1_ground_force_vy	1_ground_force_vz	1_ground_force_px	1_ground_force_py	1_ground_force_pz	ground_torque_x	ground_torque_y	ground_torque_z	1_ground_torque_x	1_ground_torque_y	1_ground_torque_z	
       15.0061188701	       -1.2754322388	       13.1058292683	       -2.3102380264	       -0.7000000000	       -0.0180000000	        0.5600000000	      -63.5529376803	      665.0893513706	       19.9641963798	       -0.7000000000	       -0.0180000000	       -0.5600000000	        5.3033763036	        0.9474620713	        9.1398158424	     -315.4322969634	      -51.8111676544	      786.4315482825	
       15.0081192053	       -1.5064942980	       11.5432071748	       -2.1062268149	       -0.7000000000	       -0.0180000000	        0.5600000000	      -63.3250644120	      666.7249936009	       21.0198284893	       -0.7000000000	       -0.0180000000	       -0.5600000000	        4.5593362685	        0.8986109057	        7.8561441499	     -316.0255716737	      -52.9080531938	      787.4765744335	
       15.0101189404	       -1.6496246109	       10.1583281764	       -1.8810827491	       -0.7000000000	       -0.0180000000	        0.5600000000	      -63.1030045061	      668.2736829575	       22.0890815192	       -0.7000000000	       -0.0180000000	       -0.5600000000	        3.8964316103	        0.8050673629	        6.7125883850	     -316.5723738854	      -54.0218119030	      788.4181831564	
       15.0121191557	       -1.7140897395	        8.9473733270	       -1.6426164409	       -0.7000000000	       -0.0180000000	        0.5600000000	      -62.8855493720	      669.7591975317	       23.1622134356	       -0.7000000000	       -0.0180000000	       -0.5600000000	        3.3129356212	        0.6756468237	        5.7066425695	     -317.0846080636	      -55.1405635194	      789.2861771372	
       15.0141189311	       -1.7093317129	        7.9057259359	       -1.4011660918	       -0.7000000000	       -0.0180000000	        0.5600000000	      -62.6715099131	      671.2019122878	       24.2307920299	       -0.7000000000	       -0.0180000000	       -0.5600000000	        2.8069266150	        0.5217119411	        4.8354845102	     -317.5727460251	      -56.2540670314	      790.1057671776	
       15.0161191861	       -1.6445668806	        7.0275790814	       -1.1681535669	       -0.7000000000	       -0.0180000000	        0.5600000000	      -62.4598980131	      672.6185564209	       25.2879736534	       -0.7000000000	       -0.0180000000	       -0.5600000000	        2.3760626251	        0.3564909860	        4.0954792209	     -318.0457909205	      -57.3540181437	      790.8974022813	
       15.0181189613	       -1.5288590541	        6.3053759739	       -0.9542749685	       -0.7000000000	       -0.0180000000	        0.5600000000	      -62.2499144950	      674.0223118506	       26.3280579656	       -0.7000000000	       -0.0180000000	       -0.5600000000	        2.0172671275	        0.1929767343	        3.4814265027	     -318.5111813848	      -58.4335623085	      791.6769211629	
       15.0201192566	       -1.3714438636	        5.7295611791	       -0.7678551454	       -0.7000000000	       -0.0180000000	        0.5600000000	      -62.0407822025	      675.4232120160	       27.3459987887	       -0.7000000000	       -0.0180000000	       -0.5600000000	        1.7265661336	        0.0416383120	        2.9861222215	     -318.9747838561	      -59.4867381812	      792.4561947471	
       15.0221189918	       -1.1819986736	        5.2889177861	       -0.6135973124	       -0.7000000000	       -0.0180000000	        0.5600000000	      -61.8315417506	      676.8285055790	       28.3370244910	       -0.7000000000	       -0.0180000000	       -0.5600000000	        1.4991001933	       -0.0909012743	        2.6007419757	     -319.4409346366	      -60.5079165296	      793.2436968410	
       15.0241192471	       -0.9705838533	        4.9711086582	       -0.4921228024	       -0.7000000000	       -0.0180000000	        0.5600000000	      -61.6208211918	      678.2426729881	       29.2961451080	       -0.7000000000	       -0.0180000000	       -0.5600000000	        1.3292522092	       -0.2022336678	        2.3157847283	     -319.9123943665	      -61.4909860581	      794.0444227019	
       15.0261189824	       -0.7471804276	        4.7631951311	       -0.4003808986	       -0.7000000000	       -0.0180000000	        0.5600000000	      -61.4067397005	      679.6673995754	       30.2182302555	       -0.7000000000	       -0.0180000000	       -0.5600000000	        1.2108872106	       -0.2935356696	        2.1220015990	     -320.3904753496	      -62.4291921506	      794.8598111475	
       15.0281192775	       -0.5210591772	        4.6521640153	       -0.3325168382	       -0.7000000000	       -0.0180000000	        0.5600000000	      -61.1870366509	      681.1014177063	       31.0980737662	       -0.7000000000	       -0.0180000000	       -0.5600000000	        1.1376084953	       -0.3684276983	        2.0110028935	     -320.8750815393	      -63.3151575704	      795.6875065967	
